<?xml version="1.0" encoding="utf-8"?>
<!-- Generator: Adobe Illustrator 27.5.0, SVG Export Plug-In . SVG Version: 6.00 Build 0)  -->
<svg version="1.1" xmlns="http://www.w3.org/2000/svg" xmlns:xlink="http://www.w3.org/1999/xlink" x="0px" y="0px"
	 viewBox="0 0 500 500" style="enable-background:new 0 0 500 500;" xml:space="preserve">
<g id="BACKGROUND">
	<g>
		<rect style="fill:#AED3FF;" width="500" height="500"/>
		<g style="opacity:0.46;">
			<path style="fill:#E1EBFD;" d="M456.897,250c0,14.933-24.808,26.878-27.984,40.849c-3.279,14.426,13.811,35.929,7.532,48.945
				c-6.383,13.23-33.914,13.234-42.988,24.598c-9.118,11.419-3.033,38.252-14.452,47.37c-11.364,9.074-36.16-2.794-49.39,3.589
				c-13.015,6.279-19.149,33.124-33.575,36.403c-13.971,3.176-31.108-18.278-46.041-18.278c-14.933,0-32.069,21.454-46.041,18.278
				c-14.426-3.279-20.561-30.124-33.576-36.403c-13.23-6.383-38.026,5.485-49.39-3.589c-11.419-9.118-5.333-35.951-14.452-47.37
				c-9.074-11.364-36.605-11.368-42.987-24.598c-6.279-13.015,10.812-34.518,7.533-48.944C67.911,276.878,43.103,264.933,43.103,250
				c0-14.933,24.808-26.878,27.984-40.849c3.279-14.426-13.812-35.929-7.532-48.945c6.383-13.23,33.913-13.234,42.988-24.598
				c9.118-11.419,3.033-38.252,14.452-47.37c11.364-9.074,36.16,2.794,49.39-3.589c13.015-6.279,19.149-33.124,33.575-36.403
				c13.971-3.176,31.108,18.278,46.041,18.278c14.933,0,32.069-21.454,46.041-18.278c14.426,3.279,20.561,30.124,33.576,36.403
				c13.23,6.383,38.026-5.485,49.39,3.589c11.419,9.118,5.333,35.951,14.452,47.37c9.074,11.364,36.605,11.368,42.988,24.598
				c6.279,13.015-10.812,34.518-7.533,48.944C432.089,223.122,456.897,235.067,456.897,250z"/>
		</g>
	</g>
</g>
<g id="OBJECTS">
	<g>
		<g>
			<ellipse style="opacity:0.32;fill:#6289FA;" cx="250.105" cy="424.888" rx="153.325" ry="16.855"/>
			<g>
				<g>
					<g>
						<g>
							<rect x="250.105" y="231.533" style="fill:#9CB8FF;" width="111.956" height="129.999"/>
							<g>
								<g>
									<path style="fill:#FFFFFF;" d="M362.926,361.435h-18.951h-0.25l0,0h-93.838l0.219-1.422v-1.141l0,0l-0.743-0.597
										l2.094-2.581c1.883-2.371,3.819-4.702,5.742-7.033c0.988-1.172,1.975-2.357,2.95-3.53c2.305-2.739,4.636-5.479,6.993-8.152
										c1.33-1.277,2.766-2.476,4.267-3.556c1.238-0.909,2.529-1.738,3.872-2.502c1.844-0.896,4.214-1.989,6.822-3.082
										c2.595-1.093,5.413-2.16,8.152-3.003l0.092-0.039h0.013c1.33-0.408,2.647-0.764,3.898-1.027
										c0.803-0.184,1.58-0.329,2.331-0.435c0.922-0.132,1.778-0.198,2.595-0.198h5.123c4.438,0,4.465,0,4.465,0h5.123
										c0.29,0,0.593,0.013,0.909,0.026c0,0,0.013,0,0.026,0c0.935,0.066,1.949,0.224,3.016,0.435
										c0.961,0.198,1.962,0.448,3.003,0.737c10.154,2.871,23.205,9.904,23.205,9.904v0.079c1.37,0.738,2.594,1.804,3.53,3.147
										c2.265,3.227,4.425,6.546,6.572,9.851c2.107,3.332,4.228,6.651,6.269,10.036L362.926,361.435z"/>
								</g>
								<g>
									<path style="fill:#2872C9;" d="M323.456,337.545c-0.013,0.356-0.04,0.672-0.053,0.961c-0.026,0.487-0.04,0.843-0.04,1.067
										h-2.634c0-0.25,0.013-0.672,0.04-1.212c0-0.039,0-0.066,0.013-0.105c0.119-2.002,0.316-6.032-0.382-8.929
										c-0.382-1.594-1.185-2.99-2.265-4.083c-0.922-0.935-2.055-1.646-3.306-2.081c-0.013,0-0.026,0-0.026,0
										c-0.869-0.303-1.791-0.461-2.753-0.461h-9.93c-0.869,0-1.699,0.145-2.476,0.434c-1.133,0.395-2.186,1.093-3.174,2.107
										c-0.105,0.105-0.198,0.211-0.303,0.316c-7.033,7.718-8.034,28.144-8.152,35.875h-2.634
										c0.105-7.981,1.12-29.158,8.876-37.666c0.092-0.132,0.211-0.25,0.329-0.369c2.16-2.212,4.702-3.332,7.533-3.332h9.93
										c3.53,0,6.73,1.633,8.797,4.267c1.001,1.251,1.725,2.74,2.12,4.372C323.653,331.606,323.574,335.175,323.456,337.545z"/>
									<g>
										<polygon style="fill:#C3DBED;" points="319.689,361.435 317.674,361.435 316.344,353.626 315.475,348.503 317.424,348.16 
											318.293,353.297 										"/>
										<polygon style="fill:#C3DBED;" points="336.217,361.435 334.215,361.435 332.411,350.886 331.542,345.75 333.478,345.421 
											334.36,350.544 										"/>
										<path style="fill:#2872C9;" d="M316.023,353.683l-0.876-5.132c-0.879-5.145,2.591-10.045,7.737-10.924
											c2.487-0.426,5.002,0.144,7.063,1.606c2.064,1.461,3.434,3.638,3.86,6.131l0.876,5.132l-2.595,0.444l-0.876-5.132
											c-0.307-1.799-1.296-3.37-2.786-4.426c-1.489-1.054-3.3-1.466-5.099-1.159c-3.713,0.634-6.218,4.171-5.584,7.884
											l0.876,5.132L316.023,353.683z"/>
									</g>
								</g>
								<g>
									<polygon style="fill:#E29373;" points="315.638,325.082 313.886,304.984 299.413,304.984 298.938,317.878 298.871,319.732 
										298.636,325.082 298.675,325.134 306.393,339.325 307.17,340.313 307.96,339.312 315.651,325.174 315.241,320.534 
																			"/>
									<path style="fill:#DC714E;" d="M314.845,313.808c0,0-4.363,2.691-8.095,2.753c-5.466,0.09-7.051-2.138-7.051-2.138
										s1.62,3.986,7.207,3.986C306.907,318.409,311.888,318.314,314.845,313.808z"/>
									<g>
										<path style="fill:#E29373;" d="M290.103,271.753c3.63-5.434,9.817-9.01,16.84-9.01h0.073
											c11.179,0,20.245,9.068,20.245,20.248c0,1.775-0.227,3.495-0.658,5.134c-0.152,0.598-0.334,1.18-0.542,1.75l-1.497,5.956
											l-1.861,7.41c-0.304,1.174-0.771,2.362-1.375,3.527c0,0.002-0.002,0.004-0.004,0.009
											c-2.782,5.386-8.444,10.222-14.309,10.259v0.002h-0.073v-0.002c-7.134-0.045-13.972-7.194-15.688-13.795l-3.358-13.366
											c-0.208-0.57-0.39-1.152-0.542-1.75c-0.431-1.638-0.658-3.358-0.658-5.134
											C286.698,278.833,287.951,274.967,290.103,271.753z"/>
										<g>
											<g>
												<path style="fill:#DC714E;" d="M308.442,299.29c0.055,0,0.108-0.025,0.144-0.071c0.06-0.079,0.045-0.191-0.034-0.251
													c-0.026-0.02-0.657-0.493-1.346-0.068c-0.085,0.052-0.111,0.163-0.059,0.248c0.052,0.085,0.163,0.111,0.248,0.059
													c0.475-0.291,0.921,0.034,0.94,0.049C308.366,299.279,308.404,299.29,308.442,299.29z"/>
											</g>
											<g>
												<path style="fill:#DC714E;" d="M304.974,299.291c0.038,0,0.077-0.012,0.109-0.037c0.023-0.017,0.467-0.339,0.939-0.048
													c0.085,0.052,0.196,0.026,0.248-0.059c0.052-0.085,0.026-0.195-0.059-0.248c-0.689-0.423-1.32,0.048-1.346,0.068
													c-0.079,0.06-0.094,0.173-0.034,0.252C304.866,299.266,304.92,299.291,304.974,299.291z"/>
											</g>
										</g>
										<path style="fill:#DC714E;" d="M310.491,286.985c-1.458,1.728-2.235,4.046-2.047,6.329l0.415-0.035
											c-0.187-2.163,0.455-4.412,1.826-6.133L310.491,286.985z"/>
										<path style="fill:#DC714E;" d="M306.979,307.736c-2.186,0-3.825-1.4-3.893-1.46c-0.189-0.164-0.209-0.45-0.045-0.639
											c0.163-0.19,0.448-0.211,0.64-0.047c0.014,0.013,1.459,1.238,3.299,1.238c1.84,0,3.286-1.226,3.3-1.238
											c0.19-0.164,0.475-0.142,0.64,0.047c0.164,0.189,0.144,0.475-0.045,0.639
											C310.805,306.335,309.166,307.736,306.979,307.736z"/>
									</g>
									<g>
										<path style="fill:#2A292D;" d="M299.956,283.531c-0.999-0.203-1.998,0.011-2.961,0.22l-0.1,0.022
											c-1.047,0.233-2,0.589-2.839,1.064c-1.043,0.62-1.769,1.236-2.285,1.94c-0.076,0.105-0.065,0.251,0.028,0.343
											c0.05,0.051,0.118,0.076,0.185,0.076c0.056,0,0.111-0.017,0.157-0.052c0.679-0.508,1.604-0.779,2.475-1.034
											c0.773-0.237,1.605-0.382,2.54-0.441c0.405-0.02,0.808,0.018,1.234,0.059c0.451,0.043,0.92,0.089,1.393,0.055
											c0.151-0.011,0.303-0.017,0.456-0.023c0.295-0.011,0.6-0.022,0.893-0.069c0.456-0.031,0.954-0.081,1.502-0.237
											c0.094-0.027,0.165-0.102,0.185-0.197c0.021-0.095-0.012-0.193-0.086-0.257
											C301.806,284.207,300.872,283.713,299.956,283.531z"/>
										<path style="fill:#2A292D;" d="M322.466,287.355c-0.517-0.704-1.242-1.32-2.29-1.943
											c-0.832-0.472-1.786-0.829-2.835-1.061l-0.092-0.02c-0.966-0.211-1.966-0.428-2.966-0.222
											c-0.916,0.181-1.851,0.675-2.779,1.469c-0.074,0.063-0.107,0.161-0.086,0.257c0.021,0.095,0.092,0.17,0.185,0.197
											c0.553,0.156,1.048,0.206,1.479,0.234c0.317,0.049,0.62,0.061,0.915,0.072c0.153,0.006,0.307,0.011,0.46,0.023
											c0.472,0.033,0.939-0.012,1.39-0.055c0.425-0.041,0.821-0.08,1.233-0.059c0.938,0.06,1.77,0.204,2.602,0.459
											c0.815,0.239,1.738,0.509,2.414,1.016c0.047,0.035,0.103,0.052,0.158,0.052c0.067,0,0.135-0.026,0.185-0.076
											C322.531,287.606,322.543,287.46,322.466,287.355z"/>
									</g>
									<g>
										<g>
											<path style="fill:#2A292D;" d="M312.911,291.935c0.097,1.115,1.08,1.94,2.195,1.843c1.115-0.097,1.94-1.08,1.843-2.194
												c-0.097-1.115-1.08-1.94-2.195-1.843C313.639,289.838,312.814,290.82,312.911,291.935z"/>
										</g>
										<g>
											<path style="fill:#2A292D;" d="M301.87,291.935c-0.097,1.115-1.08,1.94-2.195,1.843c-1.115-0.097-1.94-1.08-1.842-2.194
												c0.097-1.115,1.08-1.94,2.195-1.843C301.143,289.838,301.968,290.82,301.87,291.935z"/>
										</g>
									</g>
									<g>
										<path style="fill:#2A292D;" d="M327.049,286.835c-0.032,0.116-0.063,0.221-0.095,0.327
											c-0.316,0.98-0.874,1.296-1.443,1.148c-0.896-0.211-1.802-1.538-1.791-3.14c0.021-1.928-1.012-3.119-1.928-4.741
											c-0.232-0.432-0.464-0.885-0.664-1.401c-3.624-9.229-14.487-17.205-14.487-17.205s0.042-0.011,0.137-0.021
											c1.412-0.158,13.676-1.18,19.365,11.768C328.345,278.586,328.166,283.116,327.049,286.835z"/>
										<path style="fill:#2A292D;" d="M306.641,261.823c0,0-10.831,7.975-14.455,17.205c-0.432,1.117-0.959,2.054-1.422,2.94
											c-0.674,1.328-1.222,2.56-1.148,4.183c0.053,1.18-0.411,2.255-1.001,2.792c-0.632,0.569-1.401,0.527-1.854-0.643
											c-0.253-0.664-0.474-1.349-0.664-2.076c-0.959-3.593-1.001-7.902,1.085-12.654c5.71-13.033,18.09-11.916,19.354-11.768
											C306.61,261.813,306.641,261.823,306.641,261.823z"/>
									</g>
									<g>
										<path style="fill:#E29373;" d="M323.4,296.428c0,0,1.714,2.462,4.052-4.446c2.34-6.906-1.583-4.884-1.583-4.884
											c-0.186,0.722-0.406,1.427-0.658,2.118L323.4,296.428z"/>
										<path style="fill:#E29373;" d="M290.358,295.882c0,0-1.749,2.513-4.136-4.539c-2.389-7.049,1.616-4.985,1.616-4.985
											c0.19,0.737,0.415,1.457,0.671,2.162L290.358,295.882z"/>
									</g>
									<path style="fill:#2A292D;" d="M324.847,283.348l-3.055-2.918l-3.003-2.876c-2.202-2.107-5.521-2.56-8.207-1.106
										l-0.727,0.39c-1.043,0.569-2.202,0.853-3.35,0.853c-1.201,0-2.402-0.316-3.477-0.927c-2.834-1.612-6.406-1.064-8.629,1.317
										l-3.635,3.888l-1.285,1.38l1.623-10.557l15.435-10.989c0.074,0.01,0.105,0.021,0.105,0.021s0.042-0.011,0.137-0.021
										l16.278,8.439L324.847,283.348z"/>
								</g>
							</g>
						</g>
						<g>
							<rect x="138.149" y="231.533" style="fill:#6289FA;" width="111.956" height="129.999"/>
							<g>
								<path style="fill:#53383F;" d="M169.688,278.202c-1.346,3.869-1.622,7.578-1.723,11.673
									c-0.101,4.097,1.686,4.141,1.585,8.238c-0.101,4.097-1.889,4.053-1.99,8.15c-0.102,4.097,1.686,4.141,1.585,8.238
									c-0.102,4.098-1.889,4.054-1.991,8.152c-0.102,4.096,1.686,4.14,1.585,8.236c-0.101,4.1-1.889,4.055-1.99,8.155
									c-0.102,4.102,1.686,4.147,1.585,8.249c-0.102,4.102-4.036,5.183-1.854,8.658c1.357,2.161,3.226-1.58,5.77-1.793
									c2.545-0.213,2.694,1.569,5.238,1.356c2.545-0.213,2.395-1.995,4.94-2.208c2.545-0.213,2.694,1.569,5.238,1.355
									c2.544-0.213,2.395-1.995,4.938-2.208c2.544-0.213,2.694,1.569,5.238,1.356c2.545-0.213,2.396-1.995,4.94-2.209
									c2.549-0.214,2.698,1.569,5.247,1.355c2.549-0.214,2.935,0.409,4.258-1.781c1.955-3.236,1.521-3.348,1.384-7.126
									c-0.138-3.78-1.925-3.715-2.062-7.494c-0.138-3.78,1.649-3.845,1.512-7.624c-0.138-3.78-1.925-3.715-2.062-7.494
									c-0.138-3.781,1.649-3.846,1.511-7.627c-0.138-3.779-1.925-3.714-2.062-7.492c-0.138-3.782,1.649-3.847,1.512-7.629
									c-0.138-3.785-1.925-3.72-2.063-7.504c-0.138-3.785,2.201-6.186-0.993-15.077c-2.721-7.573-2.716,2.523-3.397,1.553
									c-0.683-0.973,3.694,2.496,3.011,1.523c-0.682-0.971-2.145,0.057-2.828-0.915c-0.683-0.973,0.78-2,0.097-2.973
									c-0.684-0.974-2.147,0.054-2.831-0.92c-0.683-0.972,0.781-2,0.098-2.972c-0.685-0.975-2.148,0.053-2.833-0.922
									c-0.686-0.976,0.778-2.004,0.092-2.98c-0.686-0.976-0.953-0.49-2.145-0.545c-1.837-0.086-2.002-0.813-3.623,0.056
									c-1.622,0.869-0.778,2.445-2.4,3.314c-1.619,0.867-2.463-0.709-4.082,0.158c-1.621,0.868-0.776,2.445-2.397,3.313
									c-1.623,0.869-2.467-0.707-4.09,0.162c-1.623,0.869-0.779,2.446-2.401,3.315c-1.623,0.87-2.468-0.707-4.091,0.163
									c-1.626,0.871-0.785,2.67-2.495,3.359C171.116,281.411,170.293,276.46,169.688,278.202z"/>
								<g>
									<polygon style="fill:#C78672;" points="203.943,329.24 203.85,329.44 190.665,358.795 190.399,359.408 190.319,359.235 
										190.292,359.155 176.868,329.24 									"/>
									<g>
										<path style="fill:#9CB8FF;" d="M179.426,338.254c0,0,10.57,4.126,20.861,0c10.291-4.125-9.889,21.62-9.889,21.62
											L179.426,338.254z"/>
										<path style="fill:#FFFFFF;" d="M223.941,333.315c-0.118-0.171-0.263-0.356-0.408-0.527
											c-0.013-0.026-0.039-0.04-0.066-0.066c-0.118-0.132-0.224-0.25-0.329-0.382c-0.118-0.118-0.237-0.237-0.342-0.356
											c-0.158-0.158-0.329-0.303-0.514-0.435c-1.896-1.514-4.649-2.147-7.718-2.278c-0.158-0.026-0.329-0.026-0.501-0.026
											h-10.114l-0.005,0.01l-0.011-0.015l-13.226,29.503l-0.046,0.056l-0.263,0.606l-0.001-0.002l-0.077-0.168l-0.027-0.08
											l-13.421-29.908l0.001-0.002h-0.002l-0.003-0.005l-0.004,0.005h-14.781c-0.171,0-0.342,0-0.514,0.013
											c-3.688,0.053-7.191,2.173-8.85,5.742l-12.367,26.445h103.884L223.941,333.315z"/>
									</g>
								</g>
								<g>
									<path style="fill:#2872C9;" d="M206.377,343.585c-0.013,0.356-0.04,0.672-0.053,0.962
										c-0.026,0.487-0.039,0.843-0.039,1.067h-2.634c0-0.25,0.013-0.672,0.039-1.212c0-0.04,0-0.066,0.013-0.105
										c0.119-2.002,0.316-6.032-0.382-8.929c-0.382-1.593-1.185-2.989-2.265-4.083c-0.922-0.935-2.055-1.646-3.306-2.081
										c-0.013,0-0.026,0-0.026,0c-0.869-0.303-1.791-0.461-2.753-0.461h-9.93c-0.869,0-1.699,0.145-2.476,0.435
										c-1.133,0.395-2.186,1.093-3.174,2.107c-0.105,0.105-0.198,0.211-0.303,0.316c-7.033,7.717-8.034,28.144-8.152,35.875
										h-2.634c0.105-7.981,1.12-29.158,8.877-37.666c0.092-0.132,0.211-0.25,0.329-0.369c2.16-2.213,4.701-3.332,7.533-3.332
										h9.93c3.53,0,6.73,1.633,8.798,4.267c1.001,1.251,1.725,2.739,2.12,4.372C206.574,337.645,206.495,341.214,206.377,343.585
										z"/>
									<g>
										<polygon style="fill:#C3DBED;" points="202.61,367.475 200.595,367.475 199.265,359.665 198.396,354.542 200.345,354.2 
											201.214,359.336 										"/>
										<polygon style="fill:#C3DBED;" points="219.138,367.475 217.136,367.475 215.332,356.926 214.463,351.789 216.399,351.46 
											217.281,356.583 										"/>
										<path style="fill:#2872C9;" d="M198.944,359.723l-0.876-5.132c-0.878-5.145,2.592-10.045,7.737-10.924
											c2.487-0.426,5.002,0.144,7.063,1.607c2.064,1.461,3.434,3.638,3.86,6.131l0.876,5.132l-2.595,0.444l-0.876-5.132
											c-0.307-1.799-1.296-3.37-2.786-4.426c-1.489-1.054-3.3-1.466-5.099-1.159c-3.713,0.634-6.218,4.171-5.584,7.884
											l0.876,5.132L198.944,359.723z"/>
									</g>
								</g>
								<g>
									<g>
										<g>
											<g>
												<g>
													<g>
														<path style="fill:#C78672;" d="M173.537,272.707c3.501-5.24,9.469-8.69,16.242-8.69h0.07
															c10.783,0,19.527,8.746,19.527,19.529c0,1.712-0.219,3.371-0.634,4.951c-0.147,0.576-0.322,1.138-0.523,1.688
															l-1.444,5.745l-1.795,7.147c-0.293,1.132-0.743,2.278-1.326,3.402c0,0.002-0.002,0.004-0.004,0.008
															c-2.683,5.195-8.145,9.859-13.8,9.895v0.002h-0.07v-0.002c-6.881-0.043-13.476-6.939-15.131-13.305l-3.239-12.892
															c-0.2-0.55-0.376-1.111-0.522-1.688c-0.415-1.58-0.634-3.239-0.634-4.951
															C170.252,279.536,171.461,275.808,173.537,272.707z"/>
														<g>
															<g>
																<path style="fill:#B06C61;" d="M191.224,299.267c0.053,0,0.104-0.024,0.139-0.069
																	c0.058-0.076,0.043-0.184-0.033-0.242c-0.025-0.02-0.634-0.475-1.299-0.066c-0.082,0.05-0.107,0.157-0.057,0.239
																	c0.05,0.082,0.157,0.107,0.239,0.057c0.459-0.281,0.889,0.033,0.907,0.047
																	C191.151,299.256,191.188,299.267,191.224,299.267z"/>
															</g>
															<g>
																<path style="fill:#B06C61;" d="M187.88,299.268c0.037,0,0.074-0.012,0.105-0.035
																	c0.022-0.016,0.45-0.327,0.906-0.047c0.082,0.05,0.189,0.025,0.239-0.057c0.05-0.082,0.025-0.189-0.057-0.239
																	c-0.664-0.408-1.273,0.047-1.298,0.066c-0.077,0.058-0.091,0.167-0.033,0.243
																	C187.776,299.244,187.828,299.268,187.88,299.268z"/>
															</g>
														</g>
														<path style="fill:#B06C61;" d="M193.2,287.399c-1.406,1.667-2.156,3.902-1.974,6.104l0.401-0.034
															c-0.181-2.086,0.439-4.256,1.762-5.915L193.2,287.399z"/>
														<path style="fill:#B06C61;" d="M189.814,307.413c-2.109,0-3.689-1.351-3.755-1.408
															c-0.182-0.158-0.202-0.434-0.044-0.616c0.157-0.183,0.432-0.204,0.617-0.046c0.014,0.012,1.407,1.194,3.182,1.194
															c1.775,0,3.169-1.182,3.183-1.194c0.183-0.158,0.458-0.137,0.617,0.046c0.158,0.182,0.139,0.458-0.044,0.616
															C193.503,306.062,191.923,307.413,189.814,307.413z"/>
													</g>
													<g>
														<path style="fill:#53383F;" d="M211.17,291.083c-0.817,2.705-4.825,2.198-4.815-0.628
															c0.009-2.599-0.339-5.355-1.338-7.959c-3.802-9.917-15.168-18.488-15.168-18.488s14.091-2.16,20.421,12.62
															C212.62,282.113,212.389,287.047,211.17,291.083z"/>
														<path style="fill:#53383F;" d="M168.493,291.083c0.817,2.705,4.825,2.198,4.815-0.628
															c-0.009-2.599,0.339-5.355,1.338-7.96c3.802-9.917,15.168-18.488,15.168-18.488s-14.091-2.16-20.422,12.62
															C167.043,282.113,167.274,287.047,168.493,291.083z"/>
													</g>
													<g>
														<g>
															<g>
																<g>
																	<path style="fill:#C78672;" d="M198.671,331.276c-0.814,3.452-3.754,5.077-7.49,5.388
																		c-3.725,0.31-7.081-1.865-8.465-5.134l0.016-0.154l0.8-22.138h13.21L198.671,331.276z"/>
																</g>
															</g>
														</g>
														<path style="fill:#B06C61;" d="M197.168,313.869c0,0-3.983,2.456-7.389,2.513c-4.99,0.082-6.436-1.952-6.436-1.952
															s1.479,3.639,6.579,3.639C189.922,318.069,194.469,317.982,197.168,313.869z"/>
													</g>
												</g>
												<path style="fill:#C78672;" d="M206.104,296.841c0,0,1.687,2.424,3.989-4.378c2.304-6.799-1.558-4.808-1.558-4.808
													c-0.184,0.711-0.4,1.405-0.647,2.085L206.104,296.841z"/>
												<path style="fill:#C78672;" d="M173.917,296.841c0,0-1.687,2.424-3.989-4.378c-2.304-6.799,1.558-4.808,1.558-4.808
													c0.184,0.711,0.4,1.405,0.647,2.085L173.917,296.841z"/>
												<g>
													<path style="fill:#2A292D;" d="M195.669,293.034c0.094,1.075,1.041,1.871,2.117,1.777
														c1.075-0.094,1.871-1.042,1.777-2.117c-0.094-1.075-1.042-1.871-2.117-1.777
														C196.371,291.012,195.576,291.959,195.669,293.034z"/>
													<path style="fill:#2A292D;" d="M195.981,293.478c0.101-0.783,0.438-1.539,1.021-1.763
														c0.595-0.271,1.223-0.078,1.921,0.192c0.696,0.26,1.448,0.63,2.374,0.64c0.488-0.006,0.898-0.186,1.263-0.37
														c0.362-0.206,0.73-0.482,0.877-0.875c-0.315,0.25-0.681,0.352-1.044,0.422c-0.372,0.068-0.737,0.108-1.036,0.036
														c-0.649-0.142-1.321-0.517-2.093-0.783c-0.733-0.299-1.815-0.423-2.618,0.136c-0.401,0.275-0.65,0.714-0.73,1.136
														C195.822,292.672,195.862,293.096,195.981,293.478z"/>
												</g>
												<g>
													<g>
														<g>
															<path style="fill:#53383F;" d="M174.737,288.32c0.705-0.528,1.513-0.905,2.338-1.147
																c0.823-0.253,1.669-0.383,2.511-0.436c0.853-0.043,1.684,0.17,2.528,0.109c0.426-0.031,0.855-0.018,1.303-0.088
																c0.445-0.03,0.9-0.079,1.396-0.219l0.041-0.162c-0.766-0.655-1.669-1.013-2.606-1.198
																c-0.946-0.194-1.919,0.031-2.846,0.232c-0.933,0.207-1.839,0.529-2.663,0.996c-0.811,0.482-1.574,1.046-2.128,1.803
																L174.737,288.32z"/>
														</g>
														<g>
															<path style="fill:#53383F;" d="M204.891,288.878c-0.705-0.528-1.513-0.905-2.338-1.147
																c-0.823-0.253-1.669-0.383-2.511-0.436c-0.853-0.042-1.684,0.17-2.528,0.11c-0.425-0.031-0.855-0.018-1.303-0.089
																c-0.445-0.03-0.9-0.079-1.396-0.219l-0.041-0.162c0.766-0.655,1.669-1.013,2.607-1.198
																c0.946-0.195,1.919,0.031,2.846,0.232c0.933,0.207,1.839,0.529,2.662,0.996c0.812,0.482,1.574,1.046,2.129,1.803
																L204.891,288.878z"/>
														</g>
													</g>
												</g>
												<g>
													<path style="fill:#2A292D;" d="M185.021,293.034c-0.094,1.075-1.041,1.871-2.117,1.777
														c-1.075-0.094-1.871-1.042-1.777-2.117c0.094-1.075,1.042-1.871,2.117-1.777
														C184.319,291.012,185.115,291.959,185.021,293.034z"/>
													<path style="fill:#2A292D;" d="M184.709,293.478c-0.101-0.783-0.438-1.539-1.021-1.763
														c-0.595-0.271-1.223-0.078-1.921,0.192c-0.696,0.26-1.448,0.63-2.374,0.64c-0.488-0.006-0.898-0.186-1.263-0.37
														c-0.362-0.206-0.73-0.482-0.877-0.875c0.315,0.25,0.682,0.352,1.044,0.422c0.371,0.068,0.737,0.108,1.036,0.036
														c0.649-0.142,1.321-0.517,2.093-0.783c0.733-0.299,1.816-0.423,2.618,0.136c0.401,0.275,0.65,0.714,0.73,1.136
														C184.868,292.672,184.828,293.096,184.709,293.478z"/>
												</g>
											</g>
										</g>
										<path style="fill:#53383F;" d="M179.207,275.919c1.271,0.444,0.191,3.166,1.462,3.61c2.654,0.928,5.818-0.629,8.8-1.321
											c0.857-0.199,1.695,0.392,1.779,1.216l0,0c0.08,0.784,0.84,1.338,1.671,1.232c4.437-0.567,9.238-1.694,12.738,0.328
											c3.248,1.877,0.818,6.892,3.719,3.648c1.834-2.051,1.62-3.348-0.402-5.237c-11.13-10.4-5.819-15.387-19.651-17.566
											c-9.037-1.424-7.937,6.342-16.263,9.932l-0.553,3.173C172.849,277.927,175.687,274.689,179.207,275.919z"/>
									</g>
								</g>
							</g>
						</g>
						<g>
							<rect x="250.105" y="101.534" style="fill:#357DE5;" width="111.956" height="129.999"/>
							<g>
								<path style="fill:#EFC49E;" d="M282.255,154.239c0,0-4.345,17.251,14.968,56.539c19.314,39.288,36.325-41.888,25.096-63.699
									C311.089,125.269,282.255,154.239,282.255,154.239z"/>
								<g>
									<polygon style="fill:#E3A28A;" points="317.732,198.739 317.639,198.939 304.454,228.294 304.188,228.907 304.108,228.734 
										304.081,228.654 290.657,198.739 									"/>
									<g>
										<path style="fill:#4A8BFF;" d="M293.215,207.753c0,0,10.57,4.126,20.861,0c10.291-4.126-9.889,21.62-9.889,21.62
											L293.215,207.753z"/>
										<g>
											<g>
												<path style="fill:#D4E5F4;" d="M304.188,228.907l-0.107-0.133l-0.04-0.04l-13.851-16.851
													c-0.213-0.253-0.293-0.6-0.213-0.92l0.866-3.653c0.12-0.507-0.147-1.027-0.64-1.227l-2.653-1.093
													c-0.653-0.267-0.867-1.067-0.44-1.626l3.546-4.626l13.425,29.915l0.027,0.08L304.188,228.907z"/>
												<path style="fill:#D4E5F4;" d="M320.828,204.991l-0.347,0.147l-2.306,0.947c-0.493,0.2-0.76,0.72-0.64,1.227
													l0.867,3.653c0.067,0.32,0,0.667-0.213,0.92l-13.504,16.411l-0.347,0.44l-0.027,0.04l-0.12,0.133l0.08-0.173l0.04-0.08
													l13.411-29.915l0.147,0.2l3.399,4.426c0.013,0.027,0.04,0.053,0.053,0.08
													C321.682,203.991,321.455,204.738,320.828,204.991z"/>
											</g>
											<path style="fill:#FFFFFF;" d="M337.733,202.81c-0.116-0.163-0.268-0.349-0.408-0.524
												c-0.012-0.023-0.046-0.035-0.07-0.07c-0.116-0.128-0.221-0.244-0.326-0.372c-0.116-0.128-0.244-0.244-0.349-0.361
												c-0.151-0.163-0.326-0.302-0.512-0.431c-1.897-1.513-4.644-2.153-7.716-2.281c-0.163-0.023-0.326-0.023-0.501-0.023
												h-10.114l-0.105,0.186v0.012l3.41,4.423c0.012,0.023,0.035,0.047,0.058,0.081c0.349,0.535,0.128,1.292-0.5,1.536
												l-0.349,0.151l-1.222,0.5l-1.082,0.442c-0.501,0.21-0.768,0.722-0.64,1.222l0.861,3.666c0.07,0.314,0,0.652-0.21,0.919
												l-1.28,1.559l-0.908,1.094l-4.446,5.4l-1.629,1.979l-0.012,0.023l-5.191,6.296l-0.023,0.023l-0.023,0.035l-0.174,0.431
												l-0.081,0.175l-0.117-0.128l-0.116,0.128l0.081-0.175l-0.454-0.547l-13.396-16.294c-0.21-0.268-0.291-0.605-0.21-0.919
												l0.861-3.666c0.023-0.081,0.023-0.175,0.023-0.256c0-0.081-0.012-0.175-0.047-0.256
												c-0.035-0.209-0.163-0.396-0.338-0.535c-0.081-0.07-0.174-0.128-0.279-0.175l-0.954-0.396l-1.699-0.698
												c-0.105-0.047-0.198-0.105-0.279-0.175c-0.14-0.105-0.244-0.256-0.291-0.407c-0.14-0.338-0.105-0.722,0.128-1.036
												l3.55-4.62h-14.781c-0.175,0-0.349,0-0.524,0.012c-3.678,0.047-7.181,2.176-8.845,5.738l-12.371,26.442h103.895
												L337.733,202.81z"/>
										</g>
									</g>
								</g>
								<g>
									<path style="fill:#2872C9;" d="M319.31,213.424v0.012c-0.012,0.349-0.035,0.652-0.047,0.943
										c-0.035,0.489-0.047,0.85-0.047,1.071h-2.63c0-0.256,0.012-0.675,0.035-1.21c0-0.046,0-0.07,0.012-0.105v-0.012
										c0.012-0.116,0.012-0.244,0.023-0.372c0.012-0.093,0.012-0.198,0.023-0.303c0.046-0.978,0.093-2.246,0.07-3.573
										c0,0,0,0,0-0.012c-0.012-0.768-0.046-1.571-0.128-2.351c-0.07-0.803-0.186-1.594-0.361-2.304
										c-0.151-0.628-0.361-1.222-0.64-1.769c0-0.012,0-0.012,0-0.012c-0.419-0.873-0.978-1.641-1.629-2.304
										c-0.489-0.5-1.036-0.931-1.618-1.292c-0.535-0.326-1.094-0.594-1.688-0.791c-0.012,0-0.023,0-0.023,0
										c-0.372-0.128-0.745-0.233-1.129-0.303c-0.524-0.105-1.071-0.163-1.629-0.163h-9.928c-0.466,0-0.931,0.047-1.373,0.14
										c-0.035,0-0.07,0-0.105,0.023c-0.349,0.058-0.675,0.163-1.001,0.279c-1.129,0.396-2.188,1.094-3.165,2.107
										c-0.117,0.105-0.198,0.21-0.314,0.314c-0.035,0.035-0.07,0.07-0.093,0.116c-1.024,1.129-1.909,2.537-2.677,4.132
										c-3.41,6.995-4.679,17.62-5.132,25.255c-0.035,0.5-0.058,1.001-0.081,1.466h-2.642c0.023-0.477,0.058-0.966,0.082-1.466
										c0.465-7.867,1.78-18.982,5.505-26.535c0.896-1.827,1.932-3.445,3.131-4.76c0.093-0.128,0.221-0.256,0.338-0.372
										c0.105-0.105,0.21-0.21,0.314-0.314c0.07-0.07,0.151-0.14,0.233-0.221c1.688-1.548,3.608-2.456,5.703-2.712
										c0.419-0.058,0.85-0.081,1.28-0.081h9.928c1.478,0,2.898,0.291,4.201,0.815c1.176,0.477,2.258,1.141,3.201,1.979
										c0.512,0.442,0.978,0.943,1.397,1.478c0.081,0.093,0.151,0.186,0.221,0.291v0.012c0.896,1.175,1.536,2.56,1.897,4.062
										c0.081,0.349,0.151,0.698,0.21,1.059c0.012,0.023,0.012,0.058,0.012,0.093C319.484,208.373,319.415,211.352,319.31,213.424
										z"/>
									<g>
										<polygon style="fill:#C3DBED;" points="314.713,232.406 312.688,232.406 312.443,230.939 312.199,229.496 
											311.326,224.376 313.281,224.038 314.154,229.171 314.457,230.939 										"/>
										<polygon style="fill:#C3DBED;" points="331.239,232.406 329.237,232.406 328.982,230.939 328.271,226.761 
											327.399,221.629 329.331,221.291 330.215,226.424 330.983,230.939 										"/>
										<path style="fill:#2872C9;" d="M311.88,229.558l-0.876-5.132c-0.878-5.145,2.592-10.045,7.737-10.924
											c2.487-0.426,5.002,0.144,7.063,1.606c2.064,1.461,3.434,3.638,3.86,6.131l0.876,5.132l-2.596,0.444l-0.876-5.132
											c-0.307-1.799-1.297-3.37-2.786-4.425c-1.489-1.054-3.3-1.466-5.1-1.159c-3.713,0.634-6.218,4.171-5.584,7.884
											l0.876,5.132L311.88,229.558z"/>
									</g>
								</g>
								<g>
									<g>
										<g>
											<path style="fill:#E3A28A;" d="M287.611,145.048c3.432-5.137,9.282-8.519,15.922-8.519h0.069
												c10.57,0,19.142,8.574,19.142,19.144c0,1.679-0.215,3.305-0.622,4.854c-0.144,0.565-0.316,1.116-0.512,1.654
												l-1.415,5.631l-1.76,7.006c-0.287,1.11-0.729,2.234-1.3,3.335c0,0.002-0.002,0.004-0.004,0.008
												c-2.63,5.093-7.984,9.665-13.529,9.7v0.002h-0.069v-0.002c-6.745-0.043-13.211-6.802-14.833-13.043l-3.175-12.638
												c-0.196-0.539-0.368-1.089-0.512-1.654c-0.407-1.549-0.622-3.175-0.622-4.854
												C284.391,151.742,285.576,148.087,287.611,145.048z"/>
											<path style="fill:#EFC49E;" d="M288.787,158.95c0.691-0.518,1.483-0.887,2.292-1.124
												c0.807-0.248,1.636-0.375,2.462-0.428c0.836-0.042,1.651,0.167,2.478,0.107c0.417-0.031,0.838-0.018,1.278-0.087
												c0.436-0.029,0.883-0.077,1.369-0.215l0.04-0.159c-0.751-0.642-1.636-0.993-2.555-1.174
												c-0.927-0.191-1.881,0.03-2.79,0.228c-0.915,0.203-1.803,0.519-2.61,0.976c-0.795,0.473-1.543,1.025-2.086,1.768
												L288.787,158.95z"/>
											<path style="fill:#EFC49E;" d="M318.348,160.899c-0.691-0.518-1.483-0.887-2.292-1.124
												c-0.807-0.248-1.636-0.375-2.462-0.428c-0.836-0.042-1.651,0.166-2.478,0.107c-0.417-0.031-0.838-0.018-1.278-0.087
												c-0.436-0.029-0.883-0.077-1.369-0.215l-0.04-0.159c0.751-0.642,1.636-0.993,2.555-1.174
												c0.927-0.191,1.881,0.03,2.79,0.228c0.915,0.203,1.803,0.519,2.61,0.976c0.796,0.472,1.543,1.025,2.087,1.768
												L318.348,160.899z"/>
											<g>
												<g>
													<path style="fill:#D28972;" d="M304.95,171.084c0.052,0,0.102-0.023,0.136-0.067c0.057-0.075,0.043-0.181-0.032-0.238
														c-0.025-0.019-0.621-0.466-1.273-0.065c-0.08,0.049-0.105,0.154-0.056,0.234c0.049,0.08,0.154,0.105,0.234,0.056
														c0.45-0.276,0.871,0.032,0.889,0.046C304.878,171.073,304.914,171.084,304.95,171.084z"/>
												</g>
												<g>
													<path style="fill:#D28972;" d="M301.671,171.084c0.036,0,0.072-0.011,0.103-0.035c0.021-0.016,0.441-0.321,0.888-0.046
														c0.08,0.049,0.185,0.024,0.234-0.056c0.049-0.08,0.024-0.185-0.056-0.234c-0.651-0.4-1.248,0.046-1.273,0.065
														c-0.075,0.057-0.089,0.164-0.032,0.239C301.569,171.061,301.62,171.084,301.671,171.084z"/>
												</g>
											</g>
											<path style="fill:#D28972;" d="M306.887,159.449c-1.379,1.634-2.114,3.825-1.935,5.983l0.393-0.033
												c-0.177-2.045,0.43-4.172,1.727-5.799L306.887,159.449z"/>
											<path style="fill:#D28972;" d="M303.567,179.069c-2.067,0-3.616-1.324-3.681-1.38c-0.179-0.155-0.198-0.426-0.043-0.604
												c0.154-0.179,0.424-0.2,0.605-0.045c0.013,0.012,1.38,1.171,3.119,1.171c1.74,0,3.106-1.159,3.12-1.171
												c0.179-0.155,0.449-0.135,0.605,0.045c0.155,0.179,0.136,0.449-0.043,0.604
												C307.184,177.745,305.635,179.069,303.567,179.069z"/>
										</g>
										<g>
											<g>
												<g>
													<path style="fill:#EFC49E;" d="M317.667,177.019c0,0,4.167-11.393,0.804-20.883
														c-3.727-10.517-14.869-19.607-14.869-19.607s13.814-2.29,20.019,13.385
														C329.827,165.588,317.667,177.019,317.667,177.019z"/>
												</g>
												<path style="fill:#EFC49E;" d="M289.502,177.019c0,0-4.167-11.393-0.804-20.883
													c3.727-10.517,14.869-19.607,14.869-19.607s-13.814-2.29-20.019,13.385
													C277.342,165.588,289.502,177.019,289.502,177.019z"/>
											</g>
										</g>
										<g>
											<g>
												<g>
													<g>
														<g>
															<path style="fill:#E3A28A;" d="M312.249,202.462c-0.797,3.384-3.68,4.977-7.342,5.282
																c-3.651,0.304-6.942-1.829-8.298-5.032l0.015-0.151l0.785-21.701h12.95L312.249,202.462z"/>
														</g>
													</g>
												</g>
											</g>
											<path style="fill:#D28972;" d="M310.777,185.398c0,0-3.905,2.408-7.244,2.463c-4.892,0.081-6.309-1.913-6.309-1.913
												s1.45,3.567,6.45,3.567C303.673,189.515,308.13,189.43,310.777,185.398z"/>
										</g>
									</g>
									<path style="fill:#EFC49E;" d="M321.482,157.747c0,0-21.056,0.177-27.781-10.695l4.081-10.246
										c0,0,11.554-2.591,19.663,5.517C325.553,150.431,321.482,157.747,321.482,157.747z"/>
									<path style="fill:#E3A28A;" d="M319.536,168.706c0,0,1.654,2.376,3.91-4.291c2.259-6.665-1.527-4.714-1.527-4.714
										c-0.18,0.697-0.392,1.377-0.634,2.044L319.536,168.706z"/>
									<path style="fill:#E3A28A;" d="M287.983,168.706c0,0-1.654,2.376-3.91-4.291c-2.259-6.665,1.527-4.714,1.527-4.714
										c0.18,0.697,0.392,1.377,0.635,2.044L287.983,168.706z"/>
									<g>
										<path style="fill:#2A292D;" d="M309.307,163.667c0.092,1.054,1.021,1.834,2.075,1.742
											c1.054-0.092,1.834-1.021,1.742-2.075c-0.092-1.054-1.021-1.834-2.075-1.742
											C309.995,161.684,309.215,162.613,309.307,163.667z"/>
										<path style="fill:#2A292D;" d="M309.613,164.102c0.099-0.768,0.429-1.508,1.001-1.729
											c0.583-0.266,1.199-0.076,1.883,0.188c0.682,0.255,1.42,0.618,2.327,0.627c0.479-0.005,0.88-0.182,1.238-0.362
											c0.355-0.202,0.716-0.472,0.86-0.858c-0.309,0.245-0.668,0.345-1.023,0.414c-0.364,0.066-0.723,0.106-1.016,0.035
											c-0.637-0.14-1.295-0.506-2.052-0.768c-0.718-0.294-1.78-0.415-2.567,0.133c-0.393,0.27-0.637,0.7-0.715,1.114
											C309.457,163.312,309.496,163.727,309.613,164.102z"/>
									</g>
									<g>
										<path style="fill:#2A292D;" d="M298.906,163.391c0.092,1.054-0.688,1.983-1.742,2.075
											c-1.054,0.092-1.983-0.688-2.075-1.742c-0.092-1.054,0.688-1.983,1.742-2.075
											C297.886,161.557,298.814,162.337,298.906,163.391z"/>
										<path style="fill:#2A292D;" d="M298.681,163.873c0.05-0.39,0.016-0.805-0.144-1.198c-0.149-0.394-0.465-0.776-0.898-0.973
											c-0.87-0.404-1.895-0.1-2.551,0.313c-0.701,0.389-1.286,0.864-1.888,1.112c-0.277,0.12-0.637,0.143-1.007,0.141
											c-0.362-0.005-0.733-0.042-1.079-0.23c0.209,0.354,0.611,0.558,0.995,0.696c0.384,0.115,0.81,0.22,1.282,0.142
											c0.892-0.167,1.556-0.651,2.184-1.021c0.627-0.379,1.201-0.672,1.822-0.511
											C297.996,162.461,298.45,163.134,298.681,163.873z"/>
									</g>
								</g>
							</g>
						</g>
						<g>
							<rect x="138.149" y="101.534" style="fill:#4A8BFF;" width="111.956" height="129.999"/>
							<g>
								<g>
									<path style="fill:#FFFFFF;" d="M251.519,230.678h-18.951h-0.25l0,0h-96.891l0.316-0.408l1.686-2.094l0.013-0.013
										l0.514-0.645l2.094-2.581c1.883-2.371,3.819-4.702,5.742-7.033c0.988-1.172,1.975-2.357,2.95-3.529
										c2.305-2.739,4.636-5.479,6.993-8.152c1.33-1.277,2.766-2.476,4.267-3.556c1.238-0.909,2.529-1.738,3.872-2.502
										c1.844-0.896,4.214-1.989,6.822-3.082c2.594-1.093,5.413-2.16,8.152-3.003l0.092-0.04h0.013
										c1.33-0.408,2.647-0.764,3.898-1.027c0.803-0.184,1.58-0.329,2.331-0.435c0.922-0.132,1.778-0.198,2.594-0.198h5.123
										c4.438,0,4.464,0,4.464,0h5.123c0.29,0,0.593,0.013,0.909,0.027c0,0,0.013,0,0.026,0c0.935,0.066,1.949,0.224,3.016,0.434
										c0.961,0.197,1.962,0.448,3.003,0.738c10.154,2.871,23.205,9.904,23.205,9.904v0.079c1.37,0.738,2.594,1.804,3.529,3.148
										c2.265,3.227,4.425,6.546,6.572,9.851c2.107,3.332,4.228,6.651,6.269,10.036L251.519,230.678z"/>
									<path style="fill:#C3DBED;" d="M206.729,194.487c-0.053-0.566-0.158-1.12-0.29-1.646c-1.067-0.211-2.081-0.369-3.016-0.434
										c-0.013,0-0.026,0-0.026,0c-0.316-0.013-0.619-0.027-0.909-0.027h-1.159c0.553,0.962,0.882,2.081,0.882,3.266
										c0,3.569-2.884,6.453-6.453,6.453c-3.543,0-6.44-2.884-6.44-6.453c0-1.185,0.329-2.305,0.896-3.266h-2.437
										c-0.816,0-1.673,0.066-2.594,0.198c-0.211,0.724-0.355,1.462-0.421,2.226c-0.013,0.277-0.026,0.553-0.026,0.843
										c0,6.084,4.965,11.036,11.023,11.036c6.085,0,11.036-4.952,11.036-11.036C206.794,195.251,206.768,194.869,206.729,194.487
										z"/>
								</g>
								<g>
									<path style="fill:#2872C9;" d="M212.049,206.788c-0.013,0.356-0.04,0.672-0.053,0.962
										c-0.026,0.487-0.039,0.843-0.039,1.067h-2.634c0-0.25,0.013-0.672,0.039-1.212c0-0.04,0-0.066,0.013-0.105
										c0.119-2.002,0.316-6.032-0.382-8.929c-0.382-1.594-1.185-2.99-2.265-4.083c-0.922-0.935-2.055-1.646-3.306-2.081
										c-0.013,0-0.026,0-0.026,0c-0.869-0.303-1.791-0.461-2.753-0.461h-9.93c-0.869,0-1.699,0.145-2.476,0.434
										c-1.133,0.395-2.186,1.093-3.174,2.107c-0.105,0.105-0.197,0.211-0.303,0.316c-7.033,7.718-8.034,28.144-8.152,35.875
										h-2.634c0.105-7.981,1.119-29.158,8.877-37.666c0.092-0.132,0.211-0.25,0.329-0.369c2.16-2.213,4.701-3.332,7.533-3.332
										h9.93c3.529,0,6.73,1.633,8.798,4.267c1.001,1.251,1.725,2.739,2.12,4.372
										C212.247,200.848,212.168,204.417,212.049,206.788z"/>
									<g>
										<polygon style="fill:#C3DBED;" points="208.283,230.678 206.268,230.678 204.937,222.868 204.068,217.745 
											206.017,217.403 206.886,222.539 										"/>
										<polygon style="fill:#C3DBED;" points="224.811,230.678 222.809,230.678 221.005,220.129 220.135,214.992 
											222.071,214.663 222.954,219.786 										"/>
										<path style="fill:#2872C9;" d="M204.617,222.926l-0.876-5.132c-0.878-5.145,2.591-10.045,7.737-10.924
											c2.487-0.426,5.002,0.144,7.063,1.606c2.064,1.461,3.434,3.638,3.86,6.131l0.876,5.132l-2.595,0.444l-0.876-5.132
											c-0.307-1.799-1.296-3.37-2.786-4.425c-1.489-1.054-3.3-1.466-5.099-1.159c-3.713,0.634-6.218,4.171-5.584,7.884
											l0.876,5.132L204.617,222.926z"/>
									</g>
								</g>
								<g>
									<g>
										<g>
											<g>
												<g>
													<g>
														<path style="fill:#E8AE9B;" d="M204.272,194.769c0.415,4.74-3.006,9.059-7.744,9.494
															c-0.048,0.004-0.097,0.009-0.145,0.013c-0.291,0.024-0.581,0.035-0.868,0.032c-4.783-0.05-8.455-4.314-8.278-9.094
															l0.3-8.1l0.466-12.881h14.471L204.272,194.769z"/>
													</g>
												</g>
											</g>
										</g>
										<path style="fill:#D18175;" d="M203.439,183.05c0,0-4.363,2.691-8.095,2.753c-5.466,0.09-7.051-2.138-7.051-2.138
											s1.62,3.986,7.207,3.986C195.5,187.651,200.481,187.556,203.439,183.05z"/>
									</g>
									<g>
										<g>
											<path style="fill:#E8AE9B;" d="M178.697,140.995c3.63-5.433,9.817-9.01,16.84-9.01h0.073
												c11.179,0,20.245,9.068,20.245,20.248c0,1.775-0.227,3.495-0.658,5.134c-0.152,0.598-0.334,1.18-0.542,1.75l-1.497,5.956
												l-1.861,7.41c-0.304,1.174-0.771,2.362-1.375,3.527c0,0.002-0.002,0.004-0.005,0.009
												c-2.782,5.386-8.444,10.222-14.308,10.259v0.002h-0.073v-0.002c-7.134-0.045-13.972-7.194-15.688-13.795l-3.358-13.366
												c-0.208-0.57-0.39-1.152-0.542-1.75c-0.43-1.638-0.657-3.358-0.657-5.134
												C175.292,148.076,176.544,144.21,178.697,140.995z"/>
											<g>
												<g>
													<path style="fill:#D18175;" d="M197.035,168.533c0.055,0,0.108-0.025,0.144-0.071c0.06-0.079,0.045-0.191-0.034-0.251
														c-0.026-0.02-0.657-0.493-1.346-0.068c-0.085,0.052-0.111,0.163-0.059,0.247c0.052,0.085,0.163,0.111,0.248,0.059
														c0.475-0.292,0.921,0.034,0.94,0.049C196.959,168.521,196.998,168.533,197.035,168.533z"/>
												</g>
												<g>
													<path style="fill:#D18175;" d="M193.568,168.533c0.038,0,0.077-0.012,0.109-0.037c0.023-0.017,0.467-0.339,0.94-0.048
														c0.085,0.052,0.195,0.026,0.248-0.059c0.052-0.085,0.025-0.195-0.059-0.247c-0.689-0.423-1.32,0.048-1.346,0.068
														c-0.079,0.06-0.094,0.173-0.034,0.252C193.46,168.509,193.514,168.533,193.568,168.533z"/>
												</g>
											</g>
											<path style="fill:#D18175;" d="M199.084,156.228c-1.458,1.728-2.235,4.046-2.046,6.328l0.415-0.035
												c-0.187-2.163,0.455-4.412,1.826-6.133L199.084,156.228z"/>
											<path style="fill:#D18175;" d="M195.573,176.978c-2.187,0-3.825-1.4-3.893-1.46c-0.189-0.164-0.209-0.45-0.045-0.639
												c0.163-0.19,0.448-0.211,0.64-0.047c0.014,0.013,1.459,1.238,3.299,1.238c1.84,0,3.286-1.226,3.3-1.238
												c0.19-0.164,0.475-0.142,0.64,0.047c0.164,0.189,0.144,0.475-0.045,0.639
												C199.399,175.578,197.76,176.978,195.573,176.978z"/>
										</g>
										<g>
											<g>
												<path style="fill:#D8D8D8;" d="M180.709,156.29c0.731-0.547,1.569-0.938,2.424-1.189
													c0.854-0.262,1.731-0.397,2.604-0.452c0.884-0.044,1.746,0.176,2.621,0.113c0.442-0.033,0.887-0.019,1.352-0.092
													c0.461-0.031,0.934-0.082,1.448-0.227l0.043-0.168c-0.794-0.679-1.73-1.05-2.702-1.242
													c-0.981-0.202-1.99,0.032-2.951,0.241c-0.967,0.214-1.907,0.549-2.761,1.033c-0.841,0.5-1.632,1.085-2.207,1.87
													L180.709,156.29z"/>
												<path style="fill:#D8D8D8;" d="M210.717,156.867c-0.731-0.547-1.568-0.938-2.424-1.189
													c-0.853-0.262-1.731-0.397-2.604-0.452c-0.884-0.044-1.746,0.176-2.621,0.114c-0.441-0.033-0.887-0.019-1.351-0.092
													c-0.461-0.031-0.934-0.081-1.448-0.227l-0.043-0.168c0.794-0.679,1.73-1.05,2.702-1.242
													c0.981-0.202,1.99,0.032,2.951,0.241c0.967,0.214,1.907,0.549,2.76,1.033c0.841,0.5,1.632,1.084,2.207,1.869
													L210.717,156.867z"/>
											</g>
										</g>
										<g>
											<g>
												<path style="fill:#2A292D;" d="M201.505,161.177c0.097,1.115,1.08,1.94,2.195,1.843c1.115-0.097,1.94-1.08,1.843-2.194
													c-0.097-1.115-1.08-1.94-2.195-1.843C202.232,159.08,201.407,160.062,201.505,161.177z"/>
											</g>
											<g>
												<path style="fill:#2A292D;" d="M190.464,161.177c-0.097,1.115-1.08,1.94-2.195,1.843
													c-1.115-0.097-1.94-1.08-1.842-2.194c0.097-1.115,1.08-1.94,2.195-1.843
													C189.736,159.08,190.561,160.062,190.464,161.177z"/>
											</g>
										</g>
										<g>
											<path style="fill:#E8AE9B;" d="M211.993,165.671c0,0,1.714,2.462,4.052-4.446c2.34-6.906-1.583-4.884-1.583-4.884
												c-0.186,0.722-0.406,1.427-0.657,2.118L211.993,165.671z"/>
											<path style="fill:#E8AE9B;" d="M178.952,165.124c0,0-1.749,2.513-4.136-4.539c-2.389-7.05,1.616-4.985,1.616-4.985
												c0.19,0.737,0.415,1.457,0.671,2.162L178.952,165.124z"/>
										</g>
										<g>
											<g>
												<path style="fill:#D8D8D8;" d="M215.545,156.402c-0.8,2.518-4.559,1.966-4.545-0.675
													c0.013-2.433-0.316-5.017-1.274-7.457c-3.624-9.226-14.457-17.2-14.457-17.2s13.431-2.009,19.465,11.741
													C217.001,147.979,216.746,152.621,215.545,156.402z"/>
												<path style="fill:#D8D8D8;" d="M175.358,157.543c0.873,2.279,4.272,1.601,4.169-0.836
													c-0.114-2.71,0.163-5.666,1.251-8.436c3.624-9.226,14.457-17.2,14.457-17.2s-13.431-2.009-19.465,11.741
													C173.27,148.512,173.837,153.572,175.358,157.543z"/>
											</g>
											<path style="fill:#D8D8D8;" d="M177.168,144.602l4.992,2.697c1.757,0.949,3.874,1.27,5.901,0.894l1.945-0.361
												c2.33-0.432,4.763,0.059,6.628,1.338l0.91,0.624c1.709,1.171,3.901,1.686,6.064,1.424l0,0
												c2.127-0.258,4.284,0.236,5.982,1.368l4.668,3.114l-1.299-12.724l-12.737-9.411l-4.953-2.495l-2.9,1.528L177.168,144.602
												z"/>
										</g>
										<g>
											<path style="fill:#D8D8D8;" d="M205.488,174.173c-2.837,0.766-4.932-1.989-7.2-2.045
												c-2.268-0.056-4.275,2.691-4.275,2.691s2.012,1.101,4.587,1.859C204.972,178.555,205.488,174.173,205.488,174.173z"/>
											<path style="fill:#D8D8D8;" d="M185.938,173.688c2.796,0.905,5.025-1.742,7.293-1.686c2.268,0.056,4.136,2.9,4.136,2.9
												s-2.064,1-4.673,1.629C186.236,178.089,185.938,173.688,185.938,173.688z"/>
										</g>
									</g>
								</g>
							</g>
						</g>
					</g>
					<g>
						<rect x="138.149" y="361.533" style="fill:#B8D0FF;" width="223.912" height="35.708"/>
						<g>
							<g>
								
									<ellipse transform="matrix(0.1637 -0.9865 0.9865 0.1637 -119.6129 618.7135)" style="fill:#E9F4FF;" cx="305.128" cy="379.908" rx="8.658" ry="8.658"/>
								<g>
									<path style="fill:#6289FA;" d="M306.495,382.384H301.7c-0.68,0-1.232-0.551-1.232-1.232v-2.488
										c0-0.68,0.551-1.232,1.232-1.232h4.795c0.68,0,1.232,0.551,1.232,1.232v2.488
										C307.727,381.832,307.176,382.384,306.495,382.384z"/>
									<path style="fill:#6289FA;" d="M307.706,380.313l1.602,1.161c0.331,0.24,0.793,0.003,0.793-0.405v-2.323
										c0-0.408-0.463-0.644-0.793-0.405l-1.602,1.161C307.431,379.703,307.431,380.113,307.706,380.313z"/>
								</g>
							</g>
							<g>
								
									<ellipse transform="matrix(0.2289 -0.9734 0.9734 0.2289 -219.3939 482.848)" style="fill:#E9F4FF;" cx="195.082" cy="379.908" rx="8.658" ry="8.658"/>
								<g>
									<path style="fill:#6289FA;" d="M195.522,380.429h-0.88c-0.9,0-1.63-0.73-1.63-1.63v-3.038c0-0.9,0.73-1.63,1.63-1.63h0.88
										c0.901,0,1.63,0.73,1.63,1.63v3.038C197.152,379.699,196.422,380.429,195.522,380.429z"/>
									<path style="fill:#6289FA;" d="M195.082,381.79c-1.742,0-3.159-1.417-3.159-3.159c0-0.187,0.152-0.339,0.339-0.339
										c0.187,0,0.339,0.151,0.339,0.339c0,1.368,1.113,2.482,2.481,2.482c1.368,0,2.481-1.113,2.481-2.482
										c0-0.187,0.152-0.339,0.339-0.339c0.187,0,0.339,0.151,0.339,0.339C198.241,380.373,196.824,381.79,195.082,381.79z"/>
									<path style="fill:#6289FA;" d="M195.082,385.351c-0.187,0-0.339-0.151-0.339-0.339v-3.244c0-0.187,0.152-0.339,0.339-0.339
										c0.187,0,0.339,0.151,0.339,0.339v3.244C195.421,385.2,195.269,385.351,195.082,385.351z"/>
									<path style="fill:#6289FA;" d="M194.289,385.685h1.586c0.517,0,0.694-0.689,0.241-0.938l-1.034-0.568l-1.034,0.568
										C193.595,384.996,193.772,385.685,194.289,385.685z"/>
								</g>
							</g>
							<g>
								
									<ellipse transform="matrix(0.2289 -0.9734 0.9734 0.2289 -176.9657 536.4103)" style="fill:#F7639C;" cx="250.105" cy="379.908" rx="8.658" ry="8.658"/>
								<path style="fill:#FFFFFF;" d="M255.693,380.38v1.268c0,0.319-0.258,0.577-0.577,0.577h-1.989
									c-0.319,0-0.577-0.258-0.577-0.577v-0.814c0-0.333-0.228-0.624-0.55-0.706c-1.245-0.316-2.548-0.316-3.793,0
									c-0.323,0.082-0.55,0.372-0.55,0.706v0.814c0,0.319-0.258,0.577-0.577,0.577h-1.985c-0.319,0-0.577-0.258-0.577-0.577
									v-1.268c0-0.332,0.124-0.654,0.357-0.89c1.13-1.145,3.051-1.899,5.229-1.899c2.178,0,4.102,0.754,5.233,1.899
									C255.569,379.726,255.693,380.048,255.693,380.38z"/>
							</g>
						</g>
					</g>
					<g>
						
							<line style="fill:none;stroke:#2A65BA;stroke-width:2.1072;stroke-miterlimit:10;" x1="138.149" y1="361.533" x2="362.061" y2="361.533"/>
						<g>
							
								<line style="fill:none;stroke:#2A65BA;stroke-width:2.1072;stroke-miterlimit:10;" x1="250.105" y1="361.533" x2="250.105" y2="101.534"/>
							
								<line style="fill:none;stroke:#2A65BA;stroke-width:2.1072;stroke-miterlimit:10;" x1="138.149" y1="231.533" x2="362.061" y2="231.533"/>
						</g>
					</g>
				</g>
				<g>
					<path style="fill:#4D5A64;" d="M365.84,77.752H134.37c-5.224,0-9.458,4.234-9.458,9.458v324.355
						c0,5.224,4.234,9.458,9.458,9.458h231.47c5.224,0,9.458-4.234,9.458-9.458V87.21C375.298,81.986,371.064,77.752,365.84,77.752z
						 M362.061,231.533v165.708H250.105H138.149V231.533V101.534h111.956h111.956V231.533z"/>
					<path style="fill:none;stroke:#2E353A;stroke-width:1.8722;stroke-linecap:round;stroke-miterlimit:10;" d="M253.19,89.517
						c0,1.704-1.381,3.085-3.085,3.085c-1.704,0-3.085-1.381-3.085-3.085s1.381-3.085,3.085-3.085
						C251.809,86.432,253.19,87.813,253.19,89.517z"/>
					
						<ellipse transform="matrix(0.229 -0.9734 0.9734 0.229 -205.3204 558.7939)" style="fill:none;stroke:#2E353A;stroke-width:1.8722;stroke-linecap:round;stroke-miterlimit:10;" cx="250.105" cy="409.015" rx="7.32" ry="7.32"/>
				</g>
			</g>
		</g>
		<g>
			<g>
				<path style="fill:#FFFFFF;" d="M337.37,131.718h32.263c6.236,0,11.292-5.055,11.292-11.292V81.07
					c0-6.236-5.056-11.292-11.292-11.292H337.37c-6.236,0-11.292,5.055-11.292,11.292v39.356
					C326.078,126.662,331.134,131.718,337.37,131.718z"/>
				<path style="fill:#FFFFFF;" d="M345.553,143.594l-7.502-12.994h19.511l-7.502,12.994
					C349.059,145.329,346.555,145.329,345.553,143.594z"/>
				<path style="fill:#4A8BFF;" d="M360.856,85.996l1.518,0.877l1.22-2.113c0.077-0.133,0.031-0.304-0.102-0.381l-1.035-0.598
					c-0.133-0.077-0.304-0.031-0.381,0.102L360.856,85.996z"/>
				
					<line style="fill:none;stroke:#4A8BFF;stroke-width:0.9472;stroke-linecap:round;stroke-miterlimit:10;" x1="361.441" y1="86.735" x2="367.395" y2="76.418"/>
				<g>
					<path style="fill:#D4E5F4;" d="M368.998,121.21c-0.178-0.308-0.572-0.415-0.881-0.232l-2.249,1.306l-4.723-8.12l3.305-1.909
						c0.273-0.157,0.365-0.505,0.209-0.777c-0.157-0.273-0.503-0.367-0.777-0.209l-0.087,0.05l-14.866-24.837
						c-0.294-0.508-0.947-0.683-1.46-0.39c-0.008,0.003-0.016,0.001-0.02-0.006c-0.37-0.641-0.968-1.099-1.683-1.291
						c-0.525-0.141-1.067-0.122-1.571,0.043l-0.478-0.827c-0.081-0.141-0.261-0.189-0.401-0.107l-0.093,0.054l-4.421-7.661
						c-0.133-0.227-0.422-0.305-0.647-0.173c-0.226,0.131-0.305,0.42-0.174,0.647l4.421,7.662l-0.095,0.055
						c-0.141,0.081-0.189,0.261-0.107,0.401l0.47,0.813c-1.024,0.846-1.326,2.331-0.646,3.538c-0.509,0.296-0.683,0.951-0.385,1.466
						l14.861,24.829l-0.301,0.174c-0.273,0.157-0.365,0.505-0.209,0.777c0.106,0.183,0.296,0.285,0.494,0.285
						c0.096,0,0.194-0.025,0.283-0.076l3.263-1.885l4.725,8.123l-2.249,1.306c-0.308,0.178-0.412,0.572-0.233,0.881
						c0.119,0.206,0.335,0.32,0.558,0.32c0.109,0,0.221-0.028,0.323-0.087l5.611-3.26
						C369.073,121.913,369.177,121.519,368.998,121.21z"/>
					<path style="fill:#9DD6E0;stroke:#9DD6E0;stroke-width:1.0536;stroke-miterlimit:10;" d="M358.737,86.053L358.737,86.053
						c0.62-1.074,1.994-1.442,3.068-0.822l0.619,0.357c1.074,0.62,1.442,1.994,0.822,3.068l0,0c-0.15,0.259-0.061,0.59,0.198,0.74
						l0,0c0.259,0.149,0.348,0.481,0.198,0.739l-15.158,25.325l-6.384-3.687l15.158-25.324c0.15-0.259,0.481-0.348,0.74-0.198l0,0
						C358.257,86.4,358.588,86.312,358.737,86.053z"/>
				</g>
				<g>
					<polygon style="fill:#4A8BFF;" points="358.763,98.348 356.473,96.929 356.147,97.457 358.437,98.877 					"/>
					<polygon style="fill:#4A8BFF;" points="357.08,101.063 354.789,99.645 354.465,100.174 356.755,101.593 					"/>
					
						<rect x="353.779" y="101.988" transform="matrix(0.5265 -0.8502 0.8502 0.5265 79.8161 349.9757)" style="fill:#4A8BFF;" width="0.621" height="2.694"/>
					
						<rect x="352.096" y="104.705" transform="matrix(0.5267 -0.8501 0.8501 0.5267 76.6577 349.773)" style="fill:#4A8BFF;" width="0.621" height="2.693"/>
					
						<rect x="350.413" y="107.421" transform="matrix(0.5257 -0.8507 0.8507 0.5257 73.8236 349.9403)" style="fill:#4A8BFF;" width="0.621" height="2.695"/>
				</g>
				<g>
					<g>
						
							<line style="fill:none;stroke:#4A8BFF;stroke-width:1.2885;stroke-linecap:round;stroke-miterlimit:10;" x1="346.999" y1="111.275" x2="340.151" y2="123.05"/>
						
							<line style="fill:none;stroke:#4A8BFF;stroke-width:1.2885;stroke-linecap:round;stroke-miterlimit:10;" x1="337.345" y1="121.421" x2="342.957" y2="124.68"/>
					</g>
					
						<line style="fill:none;stroke:#4A8BFF;stroke-width:1.1376;stroke-linecap:round;stroke-miterlimit:10;" x1="349.304" y1="116.086" x2="341.62" y2="111.648"/>
				</g>
			</g>
			<g>
				<g>
					<path style="fill:#FFFFFF;" d="M348.4,298.33h53.797c6.236,0,11.292-5.055,11.292-11.292v-39.356
						c0-6.236-5.056-11.292-11.292-11.292H348.4c-6.236,0-11.292,5.055-11.292,11.292v39.356
						C337.108,293.275,342.164,298.33,348.4,298.33z"/>
					<path style="fill:#FFFFFF;" d="M361.457,312.512l-10.074-17.448h24.655l-10.074,17.448
						C364.963,314.247,362.459,314.247,361.457,312.512z"/>
				</g>
				<g>
					<path style="fill:#4A8BFF;" d="M391.661,268.028v-1.336l-5.727-0.572c-0.234-2.029-1.035-3.882-2.24-5.403l3.647-4.456
						l-0.945-0.945l-4.456,3.647c-1.521-1.205-3.374-2.006-5.403-2.24l-0.572-5.727h-1.336l-0.572,5.727
						c-2.029,0.234-3.882,1.035-5.403,2.24l-4.456-3.647l-0.945,0.945l3.647,4.456c-1.205,1.521-2.006,3.374-2.24,5.403
						l-5.727,0.572v1.336l5.727,0.572c0.234,2.029,1.035,3.882,2.24,5.403l-3.647,4.456l0.945,0.945l4.456-3.647
						c1.521,1.205,3.374,2.006,5.403,2.24l0.572,5.727h1.336l0.572-5.727c2.029-0.234,3.881-1.035,5.402-2.24l4.456,3.647
						l0.945-0.945l-3.647-4.456c1.205-1.521,2.006-3.374,2.24-5.403L391.661,268.028z"/>
					<g>
						<path style="fill:#9CB8FF;" d="M378.523,249.084c0,1.781-1.444,3.225-3.225,3.225c-1.781,0-3.225-1.444-3.225-3.225
							s1.444-3.225,3.225-3.225C377.079,245.859,378.523,247.303,378.523,249.084z"/>
						<path style="fill:#9CB8FF;" d="M372.073,285.636c0-1.781,1.444-3.225,3.225-3.225c1.781,0,3.225,1.444,3.225,3.225
							c0,1.781-1.444,3.225-3.225,3.225C373.517,288.861,372.073,287.417,372.073,285.636z"/>
						<path style="fill:#9CB8FF;" d="M393.575,270.585c-1.781,0-3.225-1.444-3.225-3.225c0-1.781,1.444-3.225,3.225-3.225
							c1.781,0,3.225,1.444,3.225,3.225C396.799,269.141,395.356,270.585,393.575,270.585z"/>
						<path style="fill:#9CB8FF;" d="M371.371,266.062c-1.249,0-2.262-1.013-2.262-2.261c0-1.249,1.013-2.262,2.262-2.262
							s2.262,1.013,2.262,2.262C373.633,265.049,372.62,266.062,371.371,266.062z"/>
						<path style="fill:#9CB8FF;" d="M378.871,263.97c-0.773,0-1.399-0.627-1.399-1.399c0-0.773,0.627-1.4,1.399-1.4
							c0.773,0,1.399,0.627,1.399,1.4C380.271,263.344,379.644,263.97,378.871,263.97z"/>
						<path style="fill:#9CB8FF;" d="M369.883,271.457c-0.773,0-1.399-0.627-1.399-1.399c0-0.773,0.626-1.399,1.399-1.399
							c0.773,0,1.399,0.626,1.399,1.399C371.282,270.83,370.656,271.457,369.883,271.457z"/>
						<path style="fill:#9CB8FF;" d="M377.843,273.869c-1.71,0-3.096-1.386-3.096-3.096c0-1.71,1.386-3.096,3.096-3.096
							c1.71,0,3.095,1.386,3.095,3.096C380.938,272.483,379.553,273.869,377.843,273.869z"/>
						<path style="fill:#9CB8FF;" d="M357.022,264.135c1.781,0,3.225,1.444,3.225,3.225c0,1.781-1.444,3.225-3.225,3.225
							c-1.781,0-3.225-1.444-3.225-3.225C353.797,265.579,355.241,264.135,357.022,264.135z"/>
						<path style="fill:#9CB8FF;" d="M385.941,282.564c-1.259-1.259-1.259-3.301,0-4.561c1.259-1.259,3.301-1.259,4.561,0
							c1.259,1.259,1.259,3.301,0,4.561C389.242,283.823,387.201,283.823,385.941,282.564z"/>
						<path style="fill:#9CB8FF;" d="M364.655,252.156c1.259,1.259,1.259,3.301,0,4.561c-1.259,1.259-3.301,1.259-4.561,0
							c-1.259-1.259-1.259-3.301,0-4.561C361.354,250.897,363.396,250.897,364.655,252.156z"/>
						<path style="fill:#9CB8FF;" d="M360.095,278.003c1.259-1.259,3.301-1.259,4.561,0c1.259,1.259,1.259,3.301,0,4.561
							c-1.259,1.259-3.301,1.259-4.561,0C358.835,281.304,358.835,279.262,360.095,278.003z"/>
						<path style="fill:#9CB8FF;" d="M390.502,256.717c-1.26,1.259-3.301,1.259-4.561,0c-1.259-1.259-1.259-3.301,0-4.561
							c1.259-1.259,3.301-1.259,4.561,0C391.761,253.416,391.761,255.458,390.502,256.717z"/>
					</g>
				</g>
			</g>
			<g>
				<g>
					<path style="fill:#FFFFFF;" d="M143.078,301.183H94.473c-6.564,0-11.886-5.321-11.886-11.886v-41.404
						c0-6.564,5.322-11.886,11.886-11.886h48.605c6.564,0,11.886,5.321,11.886,11.886v41.404
						C154.963,295.862,149.642,301.183,143.078,301.183z"/>
					<path style="fill:#FFFFFF;" d="M134.398,315.733l10.718-18.564h-25.943l10.718,18.564
						C130.892,317.468,133.396,317.468,134.398,315.733z"/>
				</g>
				<g>
					<rect x="113.939" y="252.154" style="fill:#9DD6E0;" width="9.672" height="12.276"/>
					<path style="fill:#9DD6E0;" d="M113.675,260.987l-9.625,16.67c-2.266,3.926,0.567,8.833,5.1,8.833h19.249
						c4.533,0,7.366-4.907,5.1-8.833l-9.624-16.67C121.607,257.061,115.941,257.061,113.675,260.987z"/>
					<path style="fill:#6289FA;" d="M132.064,286.49h-26.581c-2.902,0-4.715-3.146-3.267-5.657l5.894-10.206l3.376-0.781
						c1.557-0.359,3.184-0.006,4.459,0.954c0.961,0.73,2.101,1.089,3.242,1.089c1.339,0,2.672-0.5,3.703-1.474l4.151-3.94
						l8.29,14.357C136.786,283.344,134.966,286.49,132.064,286.49z"/>
					<path style="fill:#4A8BFF;" d="M125.058,256.486H112.49c-0.948,0-1.717-0.769-1.717-1.717v-2.352
						c0-0.948,0.769-1.717,1.717-1.717h12.568c0.948,0,1.717,0.769,1.717,1.717v2.352
						C126.775,255.718,126.006,256.486,125.058,256.486z"/>
					<path style="fill:#9CB8FF;" d="M112.852,274.97c0,0.782-0.634,1.416-1.416,1.416c-0.782,0-1.416-0.634-1.416-1.416
						c0-0.782,0.634-1.416,1.416-1.416C112.218,273.554,112.852,274.188,112.852,274.97z"/>
					<path style="fill:#9CB8FF;" d="M119.429,277.867c0,0.782-0.634,1.416-1.416,1.416c-0.782,0-1.416-0.634-1.416-1.416
						s0.634-1.416,1.416-1.416C118.795,276.451,119.429,277.085,119.429,277.867z"/>
					<path style="fill:#9CB8FF;" d="M126.328,273.554c0,0.782-0.634,1.416-1.416,1.416c-0.782,0-1.416-0.634-1.416-1.416
						c0-0.782,0.634-1.416,1.416-1.416C125.694,272.138,126.328,272.772,126.328,273.554z"/>
					<path style="fill:#9CB8FF;" d="M108.629,282.114c0,0.782-0.634,1.416-1.416,1.416s-1.416-0.634-1.416-1.416
						c0-0.782,0.634-1.416,1.416-1.416S108.629,281.332,108.629,282.114z"/>
					<path style="fill:#9CB8FF;" d="M130.41,280.699c0,0.782-0.634,1.416-1.416,1.416c-0.782,0-1.416-0.634-1.416-1.416
						c0-0.782,0.634-1.416,1.416-1.416C129.777,279.283,130.41,279.917,130.41,280.699z"/>
					<path style="fill:#9CB8FF;" d="M122.721,282.905c0,0.782-0.634,1.416-1.416,1.416s-1.416-0.634-1.416-1.416
						c0-0.782,0.634-1.416,1.416-1.416S122.721,282.123,122.721,282.905z"/>
				</g>
			</g>
			<g>
				<g>
					<path style="fill:#FFFFFF;" d="M167.324,128.25H113.37c-6.564,0-11.886-5.322-11.886-11.886V70.144
						c0-6.564,5.321-11.886,11.886-11.886h53.954c6.564,0,11.886,5.321,11.886,11.886v46.221
						C179.21,122.929,173.889,128.25,167.324,128.25z"/>
					<path style="fill:#FFFFFF;" d="M157.217,141.516l11.676-20.224h-27.861l11.676,20.224
						C153.711,143.251,156.216,143.251,157.217,141.516z"/>
				</g>
				<g>
					<g>
						<path style="fill:#9CB8FF;" d="M132.223,110.802h-5.706c-4.39,0-7.621-4.128-6.544-8.384
							c1.942-7.673,5.989-17.97,13.826-18.87c0.598-0.069,1.118,0.417,1.118,1.019v23.541
							C134.917,109.595,133.711,110.802,132.223,110.802z"/>
						<path style="fill:#9CB8FF;" d="M148.472,110.802h5.706c4.39,0,7.621-4.128,6.544-8.384c-1.942-7.673-5.989-17.97-13.826-18.87
							c-0.598-0.069-1.118,0.417-1.118,1.019v23.541C145.777,109.595,146.983,110.802,148.472,110.802z"/>
					</g>
					<g>
						<path style="fill:#4A8BFF;" d="M141.931,95.084l-1.583-1.74l-1.583,1.74c-0.499,0-0.904-0.405-0.904-0.904V83.669
							c0-0.499,0.405-0.904,0.904-0.904h3.167c0.499,0,0.904,0.405,0.904,0.904V94.18C142.835,94.679,142.43,95.084,141.931,95.084z
							"/>
						<path style="fill:#4A8BFF;" d="M141.79,73.741h-2.885c-0.577,0-1.045-0.468-1.045-1.045v-0.159
							c0-0.577,0.468-1.045,1.045-1.045h2.885c0.577,0,1.045,0.468,1.045,1.045v0.159C142.835,73.273,142.367,73.741,141.79,73.741z
							"/>
						<path style="fill:#4A8BFF;" d="M141.79,77.491h-2.885c-0.577,0-1.045-0.468-1.045-1.045v-0.159
							c0-0.577,0.468-1.045,1.045-1.045h2.885c0.577,0,1.045,0.468,1.045,1.045v0.159C142.835,77.023,142.367,77.491,141.79,77.491z
							"/>
						<path style="fill:#4A8BFF;" d="M141.79,81.242h-2.885c-0.577,0-1.045-0.468-1.045-1.045v-0.159
							c0-0.577,0.468-1.045,1.045-1.045h2.885c0.577,0,1.045,0.468,1.045,1.045v0.159C142.835,80.774,142.367,81.242,141.79,81.242z
							"/>
						<path style="fill:#4A8BFF;" d="M151.287,102.167c-0.292,0-0.585-0.091-0.837-0.28l-10.103-7.611l-10.103,7.611
							c-0.613,0.462-1.487,0.341-1.949-0.274c-0.462-0.614-0.34-1.487,0.274-1.949l11.778-8.874l11.778,8.874
							c0.614,0.462,0.737,1.335,0.274,1.949C152.126,101.975,151.709,102.167,151.287,102.167z"/>
					</g>
				</g>
			</g>
		</g>
	</g>
</g>
</svg>
